<?xml version="1.0" standalone="no"?>
<!DOCTYPE svg PUBLIC "-//W3C//DTD SVG 20010904//EN"
 "http://www.w3.org/TR/2001/REC-SVG-20010904/DTD/svg10.dtd">
<svg version="1.0" xmlns="http://www.w3.org/2000/svg"
 width="720.000000pt" height="720.000000pt" viewBox="0 0 720.000000 720.000000"
 preserveAspectRatio="xMidYMid meet">
<metadata>
Created by potrace 1.14, written by Peter Selinger 2001-2017
</metadata>
<g transform="translate(0.000000,720.000000) scale(0.100000,-0.100000)"
fill="#000000" stroke="none">
<path d="M0 4670 c0 -1496 4 -2530 9 -2530 5 0 12 6 14 13 3 7 6 5 6 -5 1 -12
6 -15 19 -11 15 6 15 5 3 -10 -8 -10 -10 -21 -6 -25 4 -4 10 -1 12 6 3 6 9 12
14 12 4 0 6 -7 3 -15 -4 -9 0 -15 9 -15 9 0 19 -9 22 -21 5 -15 10 -18 18 -10
16 16 57 14 57 -4 0 -8 -6 -15 -14 -15 -22 0 -29 -17 -16 -37 10 -16 11 -16 6
-1 -3 10 4 22 19 32 21 14 24 14 37 -1 8 -10 8 -14 1 -10 -6 4 -14 3 -17 -2
-4 -5 2 -11 11 -13 21 -4 59 68 45 86 -5 6 -12 19 -15 29 -6 17 -6 17 17 0 13
-10 21 -20 17 -23 -11 -9 -13 -82 -2 -75 6 3 11 11 11 16 0 18 28 40 35 28 4
-6 13 -8 21 -5 7 3 16 2 18 -3 3 -4 0 -8 -7 -9 -39 -4 -53 -9 -64 -22 -17 -20
-16 -30 2 -30 8 0 15 7 15 16 0 14 3 14 15 4 12 -10 15 -10 15 4 0 9 4 16 10
16 5 0 7 -8 4 -17 -4 -13 -3 -14 3 -5 11 14 43 6 43 -11 0 -5 10 -2 22 9 l21
19 -17 -27 c-16 -25 -16 -27 1 -32 18 -6 33 -4 87 10 18 4 27 3 23 -3 -4 -5 7
-8 26 -5 22 2 28 1 18 -6 -9 -7 -10 -12 -2 -16 6 -4 8 -12 5 -18 -5 -7 -2 -8
5 -4 7 5 10 11 7 14 -3 3 3 12 14 19 17 12 24 12 36 2 22 -18 24 -8 5 32 -11
22 -13 36 -7 36 6 0 20 4 31 7 19 7 19 7 0 -6 -25 -16 -22 -50 3 -41 15 6 16
5 2 -12 -13 -17 -13 -18 1 -13 9 4 26 0 38 -9 20 -13 24 -13 40 1 17 16 19 15
25 -6 6 -21 7 -21 17 -5 11 19 29 23 29 6 0 -5 -4 -8 -9 -5 -5 3 -11 -3 -14
-14 -3 -11 -1 -23 4 -26 5 -3 9 2 9 10 0 9 7 16 15 16 8 0 15 7 15 15 0 9 6
12 17 8 11 -4 12 -8 5 -11 -17 -5 -15 -32 3 -32 8 0 15 -8 15 -17 0 -15 2 -16
10 -3 6 9 5 17 -3 22 -16 9 0 23 35 32 21 5 28 2 33 -14 3 -11 3 -25 -1 -31
-4 -7 -1 -10 7 -7 8 3 13 10 12 15 -1 5 5 10 13 10 8 0 14 -4 14 -8 0 -12 69
-31 95 -26 14 2 22 0 19 -4 -3 -5 2 -9 10 -9 9 0 16 6 16 13 0 9 3 8 9 -2 5
-7 14 -10 21 -6 16 10 190 15 190 6 0 -4 -16 -8 -36 -9 -55 -2 -55 -12 -1 -12
39 0 47 3 47 19 0 15 12 20 63 28 l62 11 51 -50 c51 -50 172 -139 260 -191
l48 -29 -40 -37 c-21 -20 -40 -47 -42 -60 -3 -31 -20 -44 -120 -91 -57 -27
-88 -48 -99 -68 l-17 -29 -21 31 c-28 43 -66 45 -135 7 -38 -20 -54 -34 -52
-46 2 -9 -2 -23 -8 -30 -17 -20 -6 -32 35 -39 56 -11 59 -35 24 -204 -10 -49
-40 -98 -53 -85 -2 3 -15 -5 -27 -16 -21 -19 -42 -27 -121 -45 -15 -3 -33 -13
-42 -21 -8 -8 -17 -15 -21 -15 -3 0 -20 -13 -38 -30 -27 -25 -37 -29 -69 -23
-31 4 -38 2 -38 -11 0 -22 -11 -20 -54 9 -37 25 -38 25 -43 5 -8 -32 -42 -25
-55 11 -6 18 -13 26 -18 20 -7 -13 -40 -4 -40 11 0 5 -9 6 -20 3 -23 -7 -27
10 -4 19 10 4 13 13 9 26 -4 12 -1 28 7 37 25 31 -27 -8 -91 -68 -9 -8 -38
-41 -66 -73 -27 -31 -69 -76 -91 -100 -46 -48 -175 -211 -196 -247 -7 -13 -26
-36 -41 -53 -16 -16 -52 -63 -80 -104 -77 -110 -80 -115 -100 -137 -48 -51
-87 -126 -87 -165 l0 -40 594 0 594 0 18 45 c19 52 34 58 34 15 0 -20 5 -30
15 -30 8 0 15 3 15 8 0 14 67 85 71 75 2 -7 10 -5 19 5 13 14 12 15 -3 9 -28
-11 -20 3 40 69 l23 25 -6 -33 c-3 -20 -2 -28 3 -21 5 8 14 9 23 3 12 -8 12
-10 -3 -16 -9 -3 -17 -12 -17 -20 0 -8 -8 -22 -17 -32 -10 -10 -19 -25 -21
-33 -2 -8 -15 -26 -29 -41 l-26 -28 1676 0 c922 0 1677 2 1677 5 0 3 -7 17
-16 30 -15 23 -28 100 -29 175 l0 34 81 17 c132 28 260 72 409 140 22 10 96
42 165 71 69 29 168 77 220 106 132 73 374 254 368 274 -2 5 -37 21 -78 34
-91 31 -270 123 -325 167 -21 18 -75 68 -120 112 -89 90 -133 161 -210 345
-27 63 -52 120 -56 125 -4 6 -10 27 -14 48 -4 20 -10 37 -13 37 -4 0 -34 -27
-67 -59 -51 -51 -72 -64 -145 -89 -47 -16 -120 -38 -162 -48 -43 -9 -78 -21
-78 -26 0 -4 5 -8 10 -8 18 0 11 -19 -13 -35 -27 -18 -170 -39 -204 -30 -16 4
-23 11 -19 20 6 17 -25 20 -53 6 -13 -8 -45 3 -129 44 -91 44 -114 59 -122 82
-6 15 -16 38 -22 50 -10 21 -5 30 58 95 38 40 74 78 79 84 6 6 35 40 66 75 77
87 129 156 129 173 0 7 7 19 15 26 18 15 20 35 3 24 -7 -4 -8 -3 -4 5 4 6 12
9 17 6 5 -4 12 1 15 9 3 9 11 13 16 10 6 -4 8 4 6 17 -2 13 4 32 14 43 9 10
15 27 13 37 -2 10 4 23 13 29 15 8 15 9 -3 10 -17 0 -17 2 -5 10 8 5 10 10 4
10 -7 0 -14 9 -17 20 -3 11 -1 20 4 20 5 0 9 -4 9 -10 0 -5 9 -10 20 -10 20 0
47 46 35 58 -3 3 -5 0 -5 -8 0 -10 -3 -10 -15 0 -8 7 -15 22 -14 34 1 19 2 19
10 -4 7 -19 8 -15 5 20 -2 25 -2 37 1 28 9 -36 19 -16 17 35 -1 30 1 44 6 32
7 -19 7 -19 19 0 11 18 12 17 6 -10 -4 -21 -3 -26 4 -15 6 8 8 35 5 60 -4 41
-3 42 6 15 6 -17 7 -49 3 -75 -4 -25 -7 -52 -7 -60 -1 -8 -5 -21 -10 -29 -5
-8 -4 -16 5 -22 11 -7 11 -9 -3 -9 -10 0 -19 -12 -24 -32 -3 -18 -14 -38 -23
-45 -10 -8 -12 -12 -3 -13 6 0 12 -7 12 -16 0 -9 -5 -12 -12 -8 -8 5 -9 -4 -5
-32 4 -27 3 -34 -3 -24 -7 11 -10 8 -10 -15 0 -23 -3 -27 -10 -15 -8 13 -10
13 -10 -2 0 -9 7 -24 16 -32 14 -15 14 -16 0 -16 -9 0 -16 -5 -16 -11 0 -7 12
-10 29 -7 17 2 27 0 24 -5 -3 -5 4 -6 16 -2 12 4 21 2 21 -4 0 -6 7 -8 15 -5
8 4 13 10 10 14 -3 5 3 8 14 7 11 0 17 -5 15 -9 -3 -4 0 -8 6 -8 6 0 8 -5 4
-11 -4 -8 -1 -8 13 -1 16 9 25 6 46 -14 25 -23 47 -31 47 -18 0 4 -8 13 -17
20 -10 7 -13 14 -6 14 6 0 14 -4 18 -10 3 -5 12 -7 20 -3 8 3 15 0 15 -6 0 -6
-6 -11 -12 -12 -7 -1 -2 -5 12 -9 24 -8 24 -8 3 -9 -34 -2 -28 -16 7 -16 20 0
30 5 31 15 1 8 5 4 9 -10 l8 -25 7 23 c8 23 21 29 27 11 2 -7 12 -7 31 2 28
13 52 4 28 -10 -8 -5 -10 -14 -6 -21 4 -7 2 -16 -6 -21 -11 -7 -11 -9 2 -9 10
0 23 16 32 38 12 27 16 31 16 15 1 -12 -3 -33 -9 -47 -15 -39 -1 -31 16 9 8
19 20 35 27 35 8 0 7 -4 -3 -10 -11 -7 -12 -12 -3 -21 9 -9 16 -8 28 5 20 20
21 20 28 2 4 -10 1 -13 -9 -9 -7 3 -14 0 -14 -6 0 -6 11 -11 25 -11 27 0 31
-10 15 -40 -8 -15 -7 -18 2 -15 19 7 30 -4 73 -70 119 -185 133 -205 139 -189
9 24 7 56 -3 49 -6 -3 -15 4 -21 15 -6 11 -7 20 -3 20 4 0 0 5 -10 11 -9 6
-15 14 -12 20 4 5 -1 9 -10 9 -9 0 -14 4 -11 9 3 4 -3 19 -14 31 -11 13 -20
27 -20 32 0 4 -8 8 -17 9 -12 0 -13 2 -5 6 10 4 10 8 1 19 -6 8 -15 11 -20 8
-5 -3 -9 6 -9 20 0 14 -5 28 -10 31 -6 4 -8 10 -5 15 3 5 -4 19 -15 30 -12 12
-22 30 -23 41 -1 10 -5 19 -10 19 -4 0 -5 5 -2 10 3 6 -4 10 -17 10 -16 0 -19
3 -10 8 15 10 0 62 -18 62 -5 0 -10 11 -10 24 0 13 -4 26 -9 28 -17 6 -48 115
-50 173 -3 88 22 170 72 233 52 69 136 138 206 170 46 21 63 24 122 19 64 -5
70 -4 81 16 33 63 176 199 272 258 84 53 183 82 281 83 80 1 97 -2 147 -27 67
-33 143 -98 193 -167 29 -40 55 -59 125 -96 110 -56 150 -96 202 -199 47 -94
70 -122 138 -176 66 -52 93 -96 125 -199 45 -144 57 -171 93 -209 19 -20 45
-58 57 -86 35 -78 40 -91 43 -122 1 -7 9 -10 20 -6 15 6 15 5 3 -10 -12 -15
-11 -17 8 -17 11 0 21 6 21 14 0 7 9 16 20 19 20 5 20 14 20 2676 l0 2671
-3600 0 -3600 0 0 -2530z m3065 1771 c152 -13 269 -37 375 -78 8 -4 17 -7 20
-7 29 -5 118 -51 113 -59 -3 -6 -1 -7 5 -3 12 7 74 -21 80 -36 2 -5 10 -8 18
-8 8 0 13 -5 12 -12 -2 -7 2 -13 7 -13 24 -4 52 -21 78 -48 31 -34 32 -37 12
-37 -8 0 -15 7 -15 16 0 10 -6 14 -14 11 -7 -3 -18 -1 -24 5 -11 11 -43 19
-90 22 -12 0 -20 6 -18 12 3 7 -21 9 -72 8 -109 -5 -164 -4 -174 2 -4 3 -8 1
-8 -4 0 -5 -6 -9 -12 -10 -36 -3 -69 -10 -75 -15 -3 -4 -14 -2 -24 4 -12 6
-25 6 -37 0 -9 -5 -40 -11 -67 -14 -28 -2 -57 -7 -65 -10 -32 -12 -76 -20 -97
-18 -11 1 -24 -3 -28 -8 -3 -6 -16 -11 -27 -11 -12 0 -52 -18 -90 -40 -37 -21
-75 -37 -83 -34 -8 4 -18 -1 -21 -10 -3 -9 -13 -16 -21 -16 -8 0 -11 -4 -8
-10 3 -5 2 -10 -3 -10 -4 0 -17 -8 -28 -17 -10 -10 -31 -24 -46 -32 -16 -8
-28 -17 -28 -21 0 -18 -41 -52 -55 -46 -9 3 -14 2 -11 -2 2 -4 -2 -15 -9 -25
-12 -17 -30 -24 -63 -26 -7 -1 -11 -5 -7 -10 3 -6 -5 -15 -17 -22 -13 -7 -26
-18 -31 -25 -4 -7 -14 -11 -21 -8 -7 3 -16 -2 -19 -10 -4 -9 -18 -16 -32 -16
-16 0 -25 -6 -25 -15 0 -8 -6 -15 -14 -15 -7 0 -20 -9 -27 -20 -8 -11 -25 -22
-38 -25 -13 -2 -31 -11 -41 -20 -9 -8 -21 -15 -27 -15 -6 0 -16 -7 -23 -15 -7
-8 -20 -15 -29 -15 -10 0 -30 -13 -46 -30 -15 -16 -31 -29 -34 -28 -22 2 -41
-3 -36 -11 4 -8 -19 -21 -45 -26 -3 0 -20 -9 -37 -18 -18 -10 -35 -17 -38 -17
-22 -1 -65 -14 -65 -21 0 -5 -7 -9 -15 -9 -9 0 -18 -7 -21 -15 -4 -8 -18 -15
-33 -15 -29 0 -53 -12 -52 -26 0 -5 -7 -8 -15 -8 -8 1 -14 -3 -14 -8 0 -5 -10
-7 -22 -4 -13 3 -17 3 -10 0 6 -3 12 -9 12 -14 0 -7 -32 -21 -56 -24 -5 -1
-25 -17 -44 -36 -22 -22 -35 -30 -38 -21 -3 8 -9 6 -19 -8 -8 -12 -11 -26 -7
-33 4 -7 3 -8 -4 -4 -7 4 -12 2 -12 -3 0 -6 -6 -11 -14 -11 -8 0 -17 -7 -20
-16 -3 -8 -11 -12 -17 -8 -7 4 -9 3 -6 -3 7 -11 -33 -49 -47 -45 -4 2 -14 -5
-21 -15 -13 -17 -14 -17 -21 0 -6 16 -9 14 -22 -12 -16 -34 -32 -41 -32 -15 0
14 -3 14 -15 4 -9 -8 -12 -16 -6 -19 5 -3 -8 -15 -30 -25 -43 -21 -113 -82
-122 -106 -4 -12 -6 -11 -6 3 -1 10 -5 16 -11 12 -5 -3 -7 -12 -3 -20 3 -10
-1 -15 -15 -15 -11 0 -22 -6 -25 -14 -3 -8 -19 -17 -36 -21 -17 -4 -31 -13
-31 -20 0 -14 -54 -39 -80 -37 -10 1 -11 0 -2 -4 16 -7 16 -34 0 -34 -7 0 -22
-12 -34 -27 -20 -25 -54 -28 -54 -4 0 6 6 8 14 5 16 -6 56 24 56 43 0 7 -8 13
-17 14 -10 0 -26 2 -35 4 -13 2 -18 -4 -19 -23 0 -15 -3 -21 -6 -14 -5 12 -23
7 -23 -7 0 -5 11 -20 24 -34 24 -26 24 -26 4 -24 -18 2 -23 -6 -30 -38 -5 -22
-7 -48 -4 -58 3 -13 0 -17 -9 -13 -8 3 -17 1 -20 -4 -4 -6 -15 -10 -26 -10
-10 0 -19 -4 -19 -10 0 -5 10 -10 23 -10 20 0 20 -1 -7 -15 -41 -21 -77 -20
-69 3 3 9 3 14 -1 11 -4 -4 -8 -16 -11 -27 -2 -11 -9 -30 -15 -41 -8 -16 -8
-21 2 -21 6 0 4 -6 -7 -13 -12 -10 -14 -16 -7 -21 19 -12 14 -38 -6 -34 -24 4
-52 -19 -52 -42 0 -10 -5 -20 -10 -22 -6 -2 -12 -17 -14 -33 -2 -17 -4 -34 -5
-38 0 -4 -9 -7 -18 -5 -14 2 -18 -4 -17 -24 0 -17 -5 -28 -13 -28 -8 0 -16 -7
-19 -15 -4 -10 -13 -13 -25 -10 -11 4 -19 2 -19 -4 0 -6 10 -12 23 -12 l22 -2
-23 -4 c-21 -4 -26 -13 -23 -40 1 -7 -3 -13 -9 -13 -5 0 -10 -8 -10 -19 0 -10
-9 -21 -20 -24 -11 -3 -20 -13 -20 -22 0 -10 5 -13 12 -9 7 4 8 3 4 -5 -4 -6
-11 -9 -16 -6 -5 3 -14 -4 -20 -16 -37 -69 -6 75 47 218 31 83 176 381 255
523 106 189 335 501 503 685 284 309 480 471 789 649 357 206 668 306 1011
324 17 1 80 -2 140 -7z m870 -381 c-3 -5 -11 -10 -16 -10 -6 0 -7 5 -4 10 3 6
11 10 16 10 6 0 7 -4 4 -10z m-472 -32 c34 -7 104 -33 155 -58 64 -32 95 -43
103 -35 7 7 8 5 3 -8 -5 -13 4 -28 31 -55 41 -40 85 -102 89 -124 1 -7 7 -23
14 -35 17 -31 15 -36 -11 -31 -13 2 -29 -2 -36 -9 -10 -11 -6 -13 20 -11 21 2
33 -2 36 -12 4 -12 3 -12 -5 -1 -7 10 -14 11 -28 3 -16 -9 -16 -12 -4 -16 8
-2 22 -7 30 -9 8 -3 -2 -6 -23 -6 -26 -1 -40 -6 -44 -18 -15 -40 -30 -44 -52
-15 -112 148 -203 263 -238 301 -40 45 -42 45 -57 26 -8 -11 -34 -64 -58 -119
-24 -54 -55 -112 -70 -127 -31 -34 -48 -31 -121 23 -88 65 -192 135 -209 141
-23 8 -32 -11 -47 -100 -7 -40 -26 -121 -42 -180 -16 -60 -32 -119 -35 -133
-3 -14 -12 -31 -21 -37 -9 -7 -12 -13 -6 -13 7 0 9 -9 4 -27 -5 -16 -13 -27
-19 -26 -5 1 -13 -9 -16 -23 -4 -14 -11 -22 -17 -19 -6 4 -8 -3 -6 -17 2 -12
2 -18 0 -12 -5 15 -72 -16 -73 -33 0 -19 17 -16 29 5 9 16 11 16 28 -2 16 -18
16 -18 1 -7 -11 8 -18 9 -18 3 0 -5 -13 -15 -30 -21 -26 -8 -30 -7 -31 7 0 10
-3 12 -6 5 -8 -22 -21 -14 -16 10 4 18 3 19 -6 7 -10 -14 -13 -12 -10 6 0 4
-4 10 -9 13 -17 10 -35 179 -28 262 18 214 115 355 316 461 81 43 124 56 230
74 93 15 207 12 303 -8z m387 -428 c0 -5 -12 -10 -27 -10 -22 0 -25 2 -13 10
20 13 40 13 40 0z m-345 -30 c3 -5 -1 -10 -9 -10 -9 0 -16 5 -16 10 0 6 4 10
9 10 6 0 13 -4 16 -10z m315 -5 c0 -9 -9 -15 -22 -15 -21 0 -21 0 -2 15 24 18
24 18 24 0z m-300 -31 c11 -12 11 -15 -1 -12 -8 2 -17 8 -21 13 -5 6 -8 5 -8
-3 0 -7 -5 -10 -10 -7 -13 8 -3 25 14 25 8 0 19 -7 26 -16z m-23 -46 c-3 -8
-6 -5 -6 6 -1 11 2 17 5 13 3 -3 4 -12 1 -19z m-357 -28 c-8 -6 -13 -10 -10
-11 34 -6 43 -8 48 -13 9 -10 -32 -6 -47 3 -12 8 -13 12 -1 25 7 9 15 14 19
11 3 -3 -1 -10 -9 -15z m45 -59 c-8 -14 -25 -14 -25 0 0 5 5 7 10 4 6 -3 10
-1 10 6 0 7 3 10 6 6 3 -3 3 -10 -1 -16z m63 -35 c-7 -8 -15 -12 -17 -11 -5 6
10 25 20 25 5 0 4 -6 -3 -14z m-108 -58 c0 -19 -2 -20 -10 -8 -13 19 -13 30 0
30 6 0 10 -10 10 -22z m-425 -168 c-3 -5 -12 -10 -18 -10 -7 0 -6 4 3 10 19
12 23 12 15 0z m-1425 -70 c0 -5 -2 -10 -4 -10 -3 0 -8 5 -11 10 -3 6 -1 10 4
10 6 0 11 -4 11 -10z m-160 -111 c0 -5 -4 -9 -10 -9 -5 0 -10 7 -10 16 0 8 5
12 10 9 6 -3 10 -10 10 -16z m110 -43 c0 -9 -40 -13 -46 -5 -3 5 6 9 20 9 14
0 26 -2 26 -4z m2965 -145 c113 -13 147 -19 173 -31 42 -19 67 -29 132 -51 36
-12 79 -33 97 -46 17 -12 39 -23 48 -23 9 0 14 -4 11 -9 -3 -5 8 -11 24 -15
17 -3 30 -11 30 -18 0 -10 -38 -13 -167 -13 -142 0 -332 -13 -433 -29 -14 -3
-52 -7 -85 -11 -33 -4 -67 -9 -75 -12 -8 -4 -26 -7 -40 -9 -29 -2 -445 -95
-565 -125 -44 -12 -120 -33 -170 -49 -49 -15 -187 -58 -305 -95 -118 -36 -323
-102 -455 -147 -132 -44 -262 -86 -290 -94 -236 -69 -325 -92 -319 -83 8 14
-9 10 -30 -6 -22 -17 -50 -20 -41 -5 4 6 -1 7 -11 3 -11 -4 -15 -2 -12 7 2 7
35 23 73 36 39 13 79 27 90 32 11 5 73 26 138 48 65 21 123 44 129 51 12 15 4
17 -20 3 -9 -5 -77 -28 -151 -50 -95 -30 -137 -38 -144 -31 -15 15 -27 14 -27
-4 0 -17 -9 -19 -29 -6 -12 8 -12 12 -2 25 8 9 20 16 27 16 8 0 14 8 14 18 0
17 50 52 76 52 8 0 14 6 14 13 0 12 37 41 54 42 5 0 10 10 11 23 1 12 16 37
34 56 21 21 29 38 25 49 -3 10 -1 17 5 17 7 0 14 7 18 16 9 24 52 64 68 64 8
0 15 4 15 9 0 10 126 95 168 113 15 7 39 20 53 29 66 46 294 112 421 124 43 4
76 10 74 14 -4 6 42 9 207 11 49 1 87 6 87 11 0 6 6 7 13 2 12 -8 56 -13 112
-12 101 2 133 5 128 12 -2 4 8 7 24 8 34 1 49 3 176 19 55 8 97 18 97 24 0 6
5 4 10 -4 6 -10 10 -11 10 -3 0 8 11 11 33 9 17 -2 37 0 43 5 13 11 69 19 162
23 40 2 75 6 77 8 5 5 69 1 170 -11z m-1015 -51 c0 -5 -4 -10 -10 -10 -5 0
-10 5 -10 10 0 6 5 10 10 10 6 0 10 -4 10 -10z m1565 -160 c3 -5 2 -10 -4 -10
-5 0 -13 5 -16 10 -3 6 -2 10 4 10 5 0 13 -4 16 -10z m121 -108 c16 -43 -10
-105 -31 -72 -3 6 0 10 7 10 10 0 10 2 -1 9 -7 5 -10 14 -7 20 4 6 0 14 -8 17
-12 5 -13 9 -3 25 17 27 31 24 43 -9z m-2860 -198 c-4 -9 -9 -15 -11 -12 -3 3
-3 13 1 22 4 9 9 15 11 12 3 -3 3 -13 -1 -22z m2474 -123 c51 -37 67 -100 74
-293 0 -16 5 -28 10 -28 5 0 3 -7 -4 -15 -7 -8 -9 -22 -6 -31 4 -9 1 -24 -6
-32 -10 -12 -10 -14 0 -8 6 4 12 2 12 -3 0 -6 -5 -11 -11 -11 -7 0 -9 -11 -6
-30 6 -28 6 -29 -14 -12 -11 9 -15 18 -9 20 5 2 10 8 10 13 0 4 -7 5 -17 2
-11 -4 -14 -3 -9 6 5 7 0 21 -10 32 -10 11 -12 19 -6 19 7 0 12 5 12 11 0 5
-4 8 -9 5 -4 -3 -18 24 -30 60 -22 68 -20 114 6 114 13 0 13 2 2 17 -8 9 -9
14 -4 11 6 -4 17 -2 25 3 13 8 12 12 -4 24 -11 8 -26 15 -34 15 -8 0 -12 6 -9
14 4 9 -1 17 -12 21 -24 7 -45 57 -36 85 6 18 12 20 33 15 15 -3 38 -14 52
-24z m-460 -82 c0 -5 7 -9 15 -9 8 0 15 -5 15 -11 0 -5 13 -24 30 -42 16 -18
30 -36 30 -40 0 -5 4 -5 10 -2 5 3 7 0 4 -9 -3 -8 1 -25 10 -38 9 -12 16 -33
16 -45 0 -13 5 -23 10 -23 6 0 10 -6 9 -12 -4 -31 2 -59 11 -53 6 3 10 1 10
-4 0 -6 -5 -11 -10 -11 -6 0 -8 -11 -4 -27 10 -42 14 -46 34 -28 17 15 19 15
30 -2 9 -15 10 -11 5 20 -3 20 -2 37 3 37 4 0 9 -17 10 -37 4 -50 25 -63 34
-20 4 18 2 37 -4 44 -7 9 -7 13 1 13 6 0 11 -5 11 -11 0 -5 4 -7 10 -4 7 4 7
-3 0 -20 -15 -38 -12 -55 8 -56 15 -1 15 -2 0 -6 -24 -6 -30 -32 -9 -44 12 -8
16 -20 13 -36 -3 -18 -7 -21 -13 -11 -7 10 -9 9 -9 -4 0 -9 -6 -18 -12 -21 -7
-2 -3 -2 10 0 12 2 22 -1 22 -7 0 -6 -4 -8 -10 -5 -5 3 -10 1 -10 -5 0 -6 -4
-9 -8 -6 -5 3 -20 -1 -35 -9 -14 -7 -28 -10 -30 -7 -2 4 -2 1 -1 -5 4 -16 -8
-17 -23 -2 -7 7 -10 3 -10 -15 0 -16 6 -28 18 -31 11 -4 19 -11 19 -18 0 -8
-3 -8 -12 1 -20 20 -23 14 -25 -56 -1 -37 -2 -68 -4 -69 -2 -4 -3 -7 -13 -57
-7 -38 -8 -38 -44 -32 -20 3 -45 6 -55 6 -16 0 -17 7 -12 78 4 42 8 88 9 102
6 49 -14 238 -30 286 -26 80 -70 141 -111 155 -44 14 -94 7 -132 -20 -37 -27
-45 -26 -30 0 8 15 8 19 0 15 -6 -4 -11 0 -11 8 0 9 9 21 20 28 11 7 20 18 20
25 0 7 11 29 25 49 14 20 25 33 25 29 0 -4 7 -2 15 5 9 7 13 21 10 31 -4 13
-1 19 9 19 9 0 16 4 16 9 0 5 20 7 45 4 37 -4 44 -2 39 11 -4 11 0 13 15 9 12
-3 21 -9 21 -14z m260 -79 c0 -5 -2 -10 -4 -10 -3 0 -8 5 -11 10 -3 6 -1 10 4
10 6 0 11 -4 11 -10z m10 -43 c11 -5 9 -6 -4 -4 -11 1 -21 9 -23 17 -3 10 -2
11 4 4 4 -6 15 -14 23 -17z m-140 3 c0 -5 -5 -10 -11 -10 -5 0 -7 5 -4 10 3 6
8 10 11 10 2 0 4 -4 4 -10z m95 -1 c11 -16 1 -19 -13 -3 -7 8 -8 14 -3 14 5 0
13 -5 16 -11z m-2565 -25 c0 -14 -3 -14 -15 -4 -8 7 -15 14 -15 16 0 2 7 4 15
4 8 0 15 -7 15 -16z m2587 -10 c0 -10 -7 -14 -19 -11 -10 3 -16 2 -14 -2 3 -4
1 -13 -5 -21 -5 -9 -9 -10 -9 -4 0 7 -12 15 -27 19 -25 6 -26 7 -9 17 14 8 21
7 27 -3 6 -9 9 -10 9 -2 0 6 10 14 23 16 12 2 22 5 23 6 0 0 1 -6 1 -15z m-7
-44 c0 -5 8 -6 18 -3 15 6 15 5 -1 -12 -15 -14 -21 -15 -27 -6 -5 9 -10 10
-14 2 -4 -6 -11 -11 -17 -11 -10 0 22 38 34 39 4 1 7 -3 7 -9z m49 -52 c-10
-19 -49 -25 -49 -7 0 5 -4 7 -10 4 -24 -15 -8 -27 28 -22 25 3 39 1 39 -7 0
-7 -23 -11 -59 -12 -48 -1 -56 1 -47 12 11 13 2 19 -23 15 -4 0 -5 6 -2 14 7
18 24 20 25 3 0 -10 2 -10 6 0 6 15 45 16 61 0 7 -7 13 -9 13 -5 1 4 3 12 4
17 1 6 3 16 4 23 1 8 4 8 10 -2 6 -9 6 -22 0 -33z m-1381 -61 c5 8 13 9 22 3
10 -6 11 -10 3 -10 -7 0 -17 -9 -24 -21 -9 -18 -8 -20 8 -15 10 3 28 -3 43
-15 20 -16 21 -18 4 -10 -12 6 -55 8 -95 6 -95 -6 -99 -7 -99 -17 0 -4 -7 -8
-15 -8 -8 0 -15 -5 -15 -12 0 -6 -7 -3 -15 8 -14 18 -15 18 -8 0 4 -13 0 -23
-12 -32 -10 -8 -16 -14 -12 -14 4 0 -4 -18 -18 -40 -14 -22 -25 -46 -25 -55 0
-8 -5 -15 -11 -15 -5 0 -8 -4 -5 -8 3 -4 1 -25 -4 -45 -7 -32 1 -145 16 -231
15 -88 63 -188 120 -251 29 -31 81 -66 103 -68 11 0 17 -5 15 -9 -3 -5 -10 -6
-15 -3 -5 4 -9 -1 -9 -9 0 -9 -4 -16 -10 -16 -5 0 -9 3 -9 8 3 17 -2 32 -10
32 -5 0 -7 -9 -4 -21 8 -29 -14 -40 -67 -34 -25 3 -70 7 -100 10 -30 4 -59 10
-64 16 -6 5 -17 9 -26 9 -47 0 -155 152 -189 265 -7 22 -15 47 -19 55 -33 84
-31 300 4 300 17 0 19 26 2 33 -8 3 -6 6 5 6 9 1 17 -3 17 -9 0 -5 5 -10 10
-10 6 0 9 5 8 12 -2 6 8 15 22 19 l25 7 -27 1 c-21 1 -28 6 -28 22 0 12 5 19
13 16 6 -2 11 -10 9 -16 -1 -6 5 -11 13 -11 8 0 15 7 15 15 0 16 15 21 23 8 2
-5 3 -3 1 3 -3 13 15 34 28 34 5 0 13 -10 18 -22 9 -23 9 -23 10 2 0 20 2 22
10 10 8 -13 10 -12 10 3 0 19 15 23 25 7 3 -5 1 -10 -5 -10 -6 0 -8 -4 -5 -10
8 -14 25 -13 25 1 0 19 33 38 65 39 19 0 38 9 50 23 17 20 20 20 23 4 2 -9 8
-15 13 -11 5 3 7 9 5 13 -3 3 3 8 12 9 9 1 28 3 42 6 14 2 36 5 50 6 25 1 25
1 3 10 -33 13 -28 21 8 13 29 -6 31 -4 24 18 -5 19 -4 21 4 9 8 -11 13 -12 19
-3z m1285 -17 c-10 -11 -18 -20 -20 -20 -1 0 -1 9 0 20 1 12 8 20 19 20 17 0
17 -1 1 -20z m64 -12 c-3 -8 -6 -5 -6 6 -1 11 2 17 5 13 3 -3 4 -12 1 -19z
m-1296 -5 c13 -17 13 -17 -6 -3 -11 8 -22 16 -24 17 -2 2 0 3 6 3 6 0 17 -8
24 -17z m-375 -70 c-3 -4 -6 -1 -6 6 0 7 -4 9 -10 6 -11 -7 -14 8 -3 19 4 3
11 -1 16 -9 5 -9 6 -19 3 -22z m1315 4 c13 -28 -3 -77 -26 -77 -21 0 -47 43
-38 66 14 39 48 45 64 11z m404 -17 c3 -6 -1 -7 -9 -4 -18 7 -21 14 -7 14 6 0
13 -4 16 -10z m-1915 -70 c0 -5 -5 -10 -11 -10 -5 0 -7 5 -4 10 3 6 8 10 11
10 2 0 4 -4 4 -10z m-1676 -45 c42 -20 76 -41 76 -46 0 -5 6 -9 13 -9 6 -1 30
-19 52 -40 22 -22 43 -40 48 -40 4 0 7 -9 7 -20 0 -11 6 -20 13 -20 7 0 13 -9
14 -21 1 -12 10 -27 20 -34 10 -8 14 -17 9 -22 -5 -4 -11 -2 -13 5 -5 13 -23
7 -23 -9 0 -6 5 -7 10 -4 6 3 10 -1 10 -11 0 -13 3 -14 15 -4 12 10 15 9 15
-5 0 -17 -6 -17 -55 0 -16 5 -17 5 -5 -4 9 -6 10 -11 3 -11 -6 0 -14 -8 -16
-17 -4 -14 -5 -13 -6 4 0 12 -6 25 -13 29 -7 4 -8 3 -4 -4 8 -14 4 -15 -18 -6
-9 3 -16 13 -16 21 0 8 -4 11 -10 8 -5 -3 -10 1 -10 9 0 9 -3 15 -7 14 -5 -1
-22 5 -39 15 -63 33 -195 42 -259 17 -16 -6 -31 -10 -32 -8 -2 2 -10 -8 -19
-22 -10 -14 -29 -38 -45 -55 -16 -18 -27 -41 -27 -58 0 -16 -4 -33 -10 -39 -8
-8 -9 -4 -5 13 3 13 3 21 0 18 -11 -10 -15 -53 -6 -71 6 -10 5 -19 -1 -23 -21
-13 -9 -24 23 -20 23 3 26 3 9 -3 -13 -4 -23 -10 -23 -14 1 -5 1 -12 1 -18 0
-5 10 -11 23 -11 16 -1 18 -2 5 -6 -10 -2 -18 -10 -18 -16 0 -7 -4 -6 -10 3
-8 12 -10 11 -10 -8 0 -12 7 -25 15 -28 17 -7 70 4 62 13 -8 7 16 32 26 26 4
-2 7 -12 7 -21 0 -15 -2 -15 -11 -2 -9 13 -10 13 -6 0 2 -8 12 -16 23 -16 10
-1 27 -2 37 -3 9 -1 17 -5 17 -9 0 -4 -16 -6 -35 -4 -23 3 -35 0 -35 -8 0 -7
7 -10 15 -6 19 7 47 -3 39 -15 -3 -5 0 -8 7 -7 8 2 14 -8 14 -26 1 -16 6 -31
13 -34 7 -2 9 -9 5 -15 -4 -6 0 -8 10 -4 9 3 21 -1 29 -10 11 -14 11 -16 -2
-11 -8 3 -24 2 -35 -3 -19 -7 -19 -8 3 -8 12 -1 22 -5 22 -10 0 -4 15 -13 33
-19 l32 -11 -35 4 -35 5 34 -13 c19 -7 38 -22 42 -33 7 -19 8 -18 9 1 1 19 1
19 11 2 8 -13 7 -22 -2 -33 -6 -8 -9 -17 -5 -21 3 -3 6 -1 6 6 0 7 5 9 12 5 8
-5 9 2 5 24 -6 30 -6 31 13 15 15 -13 16 -19 7 -25 -8 -5 -4 -8 10 -8 12 0 25
-4 28 -10 3 -5 15 -10 26 -10 10 0 19 5 19 10 0 6 -4 10 -10 10 -5 0 -10 5
-10 11 0 6 7 9 15 5 8 -3 15 -2 15 3 0 4 10 7 21 7 12 -1 24 5 26 12 3 8 -2
10 -14 6 -17 -5 -17 -5 0 6 19 12 41 5 32 -11 -4 -5 -1 -9 4 -9 16 0 13 16 -4
33 -13 13 -13 16 2 21 9 4 18 4 21 1 3 -3 0 -5 -6 -5 -6 0 -9 -7 -6 -15 4 -8
10 -15 15 -15 5 0 9 7 9 15 0 8 5 15 10 15 6 0 10 -8 10 -17 0 -22 6 -14 14
20 5 21 3 27 -9 27 -9 0 -13 5 -10 10 4 7 13 6 26 -1 12 -6 23 -8 27 -5 3 3 0
6 -6 6 -7 0 -12 7 -12 15 0 18 20 20 20 3 0 -7 5 -5 11 5 8 13 18 17 35 13 18
-5 22 -3 18 8 -3 8 0 17 6 21 9 6 9 10 -1 17 -11 7 -11 11 -1 15 6 2 12 12 12
21 0 15 -2 15 -10 2 -8 -13 -10 -12 -10 3 0 12 8 17 28 16 15 0 21 -3 15 -6
-18 -7 -16 -23 3 -23 12 0 15 -7 12 -25 -3 -13 -1 -26 5 -28 5 -1 11 -16 12
-32 5 -60 36 -171 61 -212 14 -25 42 -53 65 -65 22 -13 42 -33 45 -45 4 -13 9
-23 13 -23 4 0 13 -12 19 -26 7 -14 17 -22 22 -19 6 3 10 1 10 -4 0 -6 7 -11
15 -11 8 0 15 4 15 10 0 5 6 7 14 4 9 -3 17 3 21 15 3 12 10 21 14 21 18 0 50
110 55 190 7 111 24 141 101 182 33 17 69 40 79 50 11 10 23 18 27 18 3 0 18
18 33 40 15 23 31 38 36 35 9 -5 5 118 -5 166 -4 15 -17 41 -30 59 -13 18 -22
36 -20 40 3 4 -6 19 -19 33 -15 16 -20 30 -15 39 12 17 11 31 0 23 -5 -3 -12
-1 -16 5 -3 5 -1 10 4 10 6 0 11 8 11 18 0 14 -2 15 -10 2 -14 -22 -23 -5 -15
27 6 21 9 24 12 10 3 -12 12 -16 29 -13 16 3 27 0 31 -10 3 -8 10 -14 15 -14
6 0 8 7 4 15 -3 8 -1 15 4 15 6 0 10 -7 10 -15 0 -21 18 -19 23 3 3 12 5 10 7
-8 1 -14 2 -28 1 -32 0 -4 11 -11 27 -14 15 -4 33 -12 41 -18 11 -8 13 -8 7 2
-4 6 -3 12 2 12 17 0 22 -13 9 -28 -9 -13 -9 -14 1 -8 6 4 12 3 12 -2 0 -5 15
-7 33 -6 17 2 23 1 12 -2 -11 -3 -24 -10 -30 -16 -7 -6 -4 -7 6 -3 10 4 19 0
22 -9 4 -9 16 -16 27 -16 12 0 19 -4 15 -9 -11 -19 17 -22 37 -4 12 10 18 12
14 5 -13 -22 4 -72 24 -72 19 0 49 -39 33 -41 -4 -1 6 -4 22 -8 24 -5 30 -12
31 -34 1 -31 24 -64 24 -35 0 9 -6 19 -12 21 -8 3 -6 6 5 6 13 1 17 -7 18 -36
0 -31 2 -34 9 -18 8 18 9 18 10 -5 l1 -25 11 25 c11 23 12 24 15 5 2 -12 20
-39 40 -60 29 -32 35 -35 30 -17 -8 32 0 27 19 -13 9 -21 24 -35 34 -35 22 0
35 -29 20 -44 -11 -11 -22 -12 -127 -15 -77 -2 -113 -37 -147 -143 l-27 -81
37 -96 c28 -74 47 -105 79 -136 51 -49 82 -75 118 -98 15 -9 27 -24 27 -31 0
-8 11 -17 25 -20 13 -3 32 -19 40 -34 10 -16 14 -19 11 -7 -5 18 -5 18 6 4 7
-9 20 -14 28 -11 13 5 13 3 1 -11 -11 -15 -11 -17 2 -17 8 0 18 6 20 13 5 11
11 -26 8 -48 -1 -5 6 -1 14 9 15 19 15 19 15 -1 0 -11 7 -24 16 -27 10 -4 14
-14 11 -26 -6 -25 1 -26 20 -2 13 16 13 16 11 -3 -2 -11 -7 -23 -13 -27 -5 -4
2 -8 16 -8 27 0 39 -16 39 -51 0 -15 -7 -19 -33 -19 -18 0 -38 5 -44 11 -7 7
-12 3 -15 -16 -4 -20 -2 -25 9 -21 8 3 12 2 8 -3 -3 -5 1 -11 7 -14 7 -2 9 -8
5 -13 -4 -5 -11 -4 -15 2 -4 6 -17 16 -29 23 -13 6 -23 17 -23 24 0 8 4 7 10
-3 5 -8 12 -11 15 -8 11 11 -3 25 -30 30 -19 4 -25 1 -25 -13 0 -12 -5 -16
-15 -13 -8 4 -15 17 -15 30 0 13 -4 24 -10 24 -5 0 -6 -8 -3 -17 5 -12 2 -15
-10 -10 -11 4 -14 2 -10 -9 4 -10 0 -12 -13 -7 -12 4 -15 3 -10 -5 4 -7 3 -12
-2 -12 -5 0 -13 10 -17 23 -6 21 -7 21 -20 -8 -10 -21 -14 -25 -15 -11 0 15
-3 16 -14 7 -10 -9 -15 -8 -20 4 -3 8 -13 15 -23 15 -14 0 -15 2 -5 9 10 6 9
10 -7 14 -12 3 -19 1 -15 -4 9 -15 -14 -10 -30 7 -15 14 -16 14 -16 0 0 -18
-25 -22 -35 -6 -4 6 1 7 12 3 15 -6 16 -5 3 9 -17 17 -70 14 -82 -5 -5 -7 -8
-1 -8 14 0 23 -4 26 -29 23 -20 -2 -31 2 -35 12 -5 14 -9 14 -22 3 -12 -10
-17 -10 -23 0 -6 10 -10 9 -14 -3 -4 -9 -14 -15 -24 -15 -17 1 -17 2 0 6 9 2
17 8 17 12 0 13 -34 9 -49 -6 -15 -16 -33 -13 -39 7 -3 9 2 11 17 7 11 -3 21
-1 21 4 0 5 -11 9 -25 9 -14 0 -25 -3 -25 -7 0 -5 -11 -9 -25 -9 -14 -1 -25 2
-25 7 0 5 5 9 10 9 6 0 10 5 10 11 0 8 -4 8 -13 1 -10 -8 -24 -8 -51 -1 -29 8
-41 8 -50 -2 -6 -6 -6 -10 -1 -7 6 3 19 2 30 -2 13 -5 4 -7 -27 -6 -26 0 -42
3 -37 7 6 3 4 11 -4 18 -12 9 -16 8 -21 -5 -5 -14 -9 -14 -23 -3 -10 8 -14 9
-10 2 4 -6 3 -14 -3 -18 -5 -3 -10 3 -10 14 0 12 -5 21 -11 21 -5 0 -8 -3 -6
-7 3 -5 -9 -8 -26 -8 -18 1 -31 6 -30 12 1 5 -10 9 -24 7 -16 -1 -32 4 -40 14
-11 16 -12 15 -13 -3 -1 -18 -1 -19 -11 -2 -5 9 -17 17 -24 17 -8 0 -15 5 -15
10 0 6 -7 10 -15 10 -8 0 -15 5 -15 10 0 6 -6 10 -13 10 -14 0 -47 35 -47 49
0 5 -7 12 -16 15 -9 4 -14 9 -11 12 3 4 -3 15 -13 26 -10 11 -16 26 -13 34 3
8 0 14 -5 14 -6 0 -17 6 -24 14 -12 11 -20 11 -53 -4 -58 -25 -108 -40 -133
-40 -12 0 -22 -4 -22 -10 0 -12 -63 0 -72 14 -6 8 -8 8 -8 0 0 -19 -29 -25
-51 -11 -16 10 -21 9 -29 -3 -8 -12 -10 -10 -11 10 0 22 -1 23 -8 6 -7 -18 -8
-18 -14 -2 -6 15 -10 16 -22 6 -10 -9 -15 -9 -15 -1 0 6 -6 11 -14 11 -8 0
-17 8 -20 17 -6 15 -8 15 -16 3 -7 -11 -10 -12 -10 -2 0 7 -4 11 -10 7 -5 -3
-16 7 -24 22 -8 15 -15 23 -16 16 0 -7 -7 -10 -15 -7 -8 4 -13 10 -10 15 8 11
-33 31 -47 23 -7 -5 -9 0 -6 14 4 12 2 22 -3 22 -5 0 -9 -6 -9 -12 0 -10 -3
-9 -9 1 -5 8 -14 10 -21 6 -9 -5 -11 -4 -6 3 4 7 1 12 -6 13 -7 0 -4 4 7 8 17
7 17 8 -8 14 -18 5 -24 12 -21 22 4 8 1 15 -5 15 -6 0 -11 -4 -11 -10 0 -5 -5
-10 -11 -10 -6 0 -8 9 -4 20 7 23 -4 26 -24 8 -11 -11 -13 -9 -8 10 3 13 3 21
-1 18 -3 -4 -12 4 -19 16 -7 13 -12 17 -13 11 0 -7 -5 -13 -11 -13 -6 0 -9 7
-5 15 3 8 1 15 -4 15 -6 0 -10 -9 -10 -21 0 -11 -5 -17 -10 -14 -6 4 -8 11 -5
16 4 5 -1 12 -9 15 -9 3 -14 10 -11 14 3 5 -8 11 -25 15 -17 4 -28 10 -25 15
3 5 -6 20 -20 34 -14 14 -25 30 -25 36 0 6 -4 8 -10 5 -5 -3 -10 0 -10 7 0 7
-13 38 -28 68 -41 81 -72 209 -72 297 0 248 115 405 340 468 86 23 163 14 254
-30z m2208 -12 c35 -40 -35 -94 -72 -56 -13 14 -12 14 10 9 24 -7 24 -6 4 6
-17 10 -20 18 -13 36 10 27 49 30 71 5z m1385 -7 c-2 -6 2 -17 10 -24 7 -8 10
-19 6 -25 -4 -6 -9 -2 -14 11 -5 12 -13 22 -18 22 -6 0 -8 8 -5 18 4 10 3 13
-3 6 -4 -6 -17 -14 -29 -18 -25 -8 -27 -29 -3 -44 13 -9 19 -8 23 3 3 8 1 15
-4 15 -6 0 -10 5 -10 11 0 21 24 3 31 -23 6 -23 3 -27 -18 -33 -24 -6 -25 -7
-7 -21 18 -14 18 -14 -4 -4 -17 8 -21 17 -17 31 4 13 2 19 -6 17 -16 -4 -30
49 -16 61 26 21 91 19 84 -3z m-102 -26 c3 -6 -1 -7 -9 -4 -18 7 -21 14 -7 14
6 0 13 -4 16 -10z m-2492 -43 c4 3 7 2 7 -4 0 -6 10 -9 23 -6 12 3 20 3 17 0
-3 -3 -17 -8 -31 -10 -18 -4 -29 1 -39 16 -12 19 -11 20 2 10 8 -7 18 -10 21
-6z m2497 -27 c0 -11 -2 -20 -4 -20 -2 0 -6 9 -9 20 -3 11 -1 20 4 20 5 0 9
-9 9 -20z m100 0 c0 -5 -4 -10 -10 -10 -5 0 -10 5 -10 10 0 6 5 10 10 10 6 0
10 -4 10 -10z m-2450 -44 c-10 -13 -40 -12 -40 1 0 3 7 3 15 -1 8 -3 15 -1 15
4 0 6 5 10 11 10 8 0 8 -4 -1 -14z m2347 -8 c-3 -8 -6 -5 -6 6 -1 11 2 17 5
13 3 -3 4 -12 1 -19z m-2243 -44 c3 -8 2 -12 -4 -9 -6 3 -10 10 -10 16 0 14 7
11 14 -7z m3 -39 c0 -8 -4 -15 -9 -15 -10 0 -11 14 -1 23 9 10 10 9 10 -8z
m93 -89 c0 -5 -7 -3 -15 4 -8 7 -15 20 -15 28 0 13 3 12 15 -4 8 -10 15 -23
15 -28z m-1083 21 c3 -4 0 -7 -8 -7 -9 -1 -6 -8 10 -20 13 -11 19 -20 13 -20
-6 0 -8 -9 -5 -20 3 -11 0 -20 -6 -20 -5 0 -8 6 -5 14 3 9 -5 15 -23 19 -24 5
-29 11 -28 35 0 25 4 30 22 28 13 -2 26 -6 30 -9z m2851 -21 c6 -4 12 -3 12 2
0 10 132 4 140 -7 3 -3 13 -7 22 -9 12 -2 16 2 12 13 -5 11 -2 14 10 9 9 -3
16 -14 16 -23 0 -9 3 -12 8 -6 10 15 64 14 58 -1 -5 -12 39 -13 51 -1 3 3 12
-1 20 -9 12 -11 18 -12 29 -3 10 8 14 8 14 0 0 -6 11 -11 25 -11 14 0 25 -5
25 -11 0 -5 5 -7 10 -4 6 3 10 1 10 -4 0 -6 3 -10 8 -9 34 7 132 -80 173 -153
83 -148 76 -382 -13 -483 -10 -11 -18 -23 -18 -28 0 -4 -7 -8 -15 -8 -8 0 -15
7 -15 16 0 8 -4 12 -10 9 -5 -3 -10 -1 -10 4 0 6 5 11 12 11 6 0 8 3 4 7 -4 5
-15 -1 -23 -12 -15 -19 -15 -19 -9 7 3 15 1 30 -5 34 -6 3 -9 15 -6 25 3 11 1
19 -4 19 -5 0 -9 -4 -9 -10 0 -5 -8 -10 -17 -9 -11 0 -13 3 -5 6 19 8 14 50
-9 72 -26 24 -70 34 -62 14 3 -7 11 -12 17 -11 6 2 12 -1 13 -7 1 -11 0 -11
-36 0 -15 5 -21 3 -17 -3 3 -6 0 -13 -6 -15 -10 -4 -9 -8 2 -16 8 -6 10 -11 4
-11 -18 0 -37 28 -30 45 3 8 1 15 -4 15 -5 0 -12 -9 -15 -21 -5 -15 -10 -18
-18 -10 -7 7 -7 14 2 25 10 12 9 14 -6 10 -14 -4 -19 1 -21 20 -1 14 3 26 8
26 6 0 10 -7 10 -17 0 -9 3 -14 6 -10 3 3 3 15 -1 27 -5 17 -10 19 -21 9 -8
-6 -14 -21 -15 -33 -1 -19 -2 -18 -9 4 -8 24 -8 24 -9 3 -1 -15 -7 -23 -18
-23 -15 0 -16 2 -3 10 12 7 8 10 -15 10 -23 0 -27 -3 -15 -10 12 -8 11 -10 -7
-10 -16 0 -21 4 -17 15 4 8 1 15 -5 15 -6 0 -11 -7 -11 -15 0 -10 -10 -14 -35
-13 -23 1 -31 4 -23 9 10 7 8 9 -5 9 -10 0 -20 7 -23 15 -10 25 -21 17 -17
-12 l5 -28 -19 23 -19 23 4 -41 c4 -43 6 -41 -63 -57 -22 -5 -39 -14 -37 -21
1 -7 -4 -12 -10 -12 -9 0 -8 -4 2 -10 12 -8 10 -10 -10 -10 -20 0 -22 -2 -10
-10 13 -8 12 -10 -3 -10 -10 0 -15 -4 -12 -10 3 -5 1 -10 -4 -10 -6 0 -11 7
-11 15 0 9 -6 12 -15 9 -10 -4 -12 -11 -6 -23 8 -14 5 -17 -17 -16 -15 0 -27
-5 -27 -11 0 -6 -8 -18 -17 -28 -15 -14 -18 -15 -18 -3 0 9 6 17 13 20 6 2 8
8 4 13 -5 5 -13 1 -18 -9 -6 -9 -17 -17 -26 -17 -12 0 -13 -3 -4 -14 9 -11 9
-16 0 -22 -8 -4 -9 -3 -5 4 4 7 5 12 2 12 -2 0 -13 3 -23 6 -15 5 -15 4 -3 -5
13 -9 13 -11 0 -11 -13 0 -13 -1 0 -10 11 -7 3 -9 -27 -5 -34 4 -43 1 -47 -13
-5 -14 -14 -17 -35 -14 -16 2 -38 -1 -50 -7 -15 -8 -21 -8 -21 -1 0 6 -10 10
-22 8 -39 -4 -112 13 -97 23 9 6 10 9 2 9 -6 0 -15 -5 -19 -11 -4 -7 -9 -8
-13 -1 -3 5 -15 12 -26 14 -11 1 -26 9 -34 16 -12 12 -12 15 0 23 9 7 5 7 -15
3 -17 -4 -27 -3 -23 2 3 6 -8 19 -24 29 -16 11 -29 24 -29 29 0 5 -6 3 -14 -3
-11 -9 -16 -5 -25 20 -6 18 -11 43 -11 55 0 13 -5 23 -11 21 -6 -1 -13 6 -14
16 -2 10 -12 25 -22 33 -14 11 -15 15 -5 22 11 7 10 10 -3 15 -10 5 -14 3 -9
-5 4 -7 3 -8 -4 -4 -7 4 -12 14 -12 23 0 9 -6 13 -15 9 -8 -3 -15 0 -15 7 0 9
-3 8 -9 -1 -4 -8 -12 -14 -16 -14 -8 0 -25 22 -25 35 0 4 5 7 11 7 5 0 7 -5 3
-12 -4 -7 -3 -8 4 -4 7 4 12 14 12 22 0 8 15 23 33 34 17 11 26 20 19 20 -10
0 -10 3 0 14 7 8 15 10 16 5 5 -13 32 -11 32 2 0 5 5 7 10 4 6 -3 10 4 11 17
1 19 3 17 11 -9 16 -50 16 -50 90 47 23 30 48 59 55 63 7 5 11 12 9 16 -3 4 6
14 19 21 14 7 25 17 25 22 0 5 16 16 35 24 19 8 35 19 35 25 0 5 4 8 8 5 5 -3
18 4 30 14 12 11 25 20 31 20 5 0 11 5 13 10 2 6 13 12 26 13 14 1 21 6 18 14
-3 7 -2 12 2 11 10 -2 83 12 102 20 20 8 50 13 78 14 15 0 22 5 18 13 -3 10
16 12 88 11 50 -1 97 -5 104 -10z m-3423 -76 c3 -5 2 -10 -4 -10 -5 0 -13 5
-16 10 -3 6 -2 10 4 10 5 0 13 -4 16 -10z m19 -135 c3 -8 1 -15 -4 -15 -6 0
-10 7 -10 15 0 8 2 15 4 15 2 0 6 -7 10 -15z m636 -5 c-12 -8 -12 -10 -1 -10
8 0 12 -3 8 -6 -9 -9 -28 6 -22 17 4 5 12 9 18 9 7 0 6 -4 -3 -10z m-480 -60
c0 -5 -2 -10 -4 -10 -3 0 -8 5 -11 10 -3 6 -1 10 4 10 6 0 11 -4 11 -10z
m1777 4 c-3 -3 -12 -4 -19 -1 -8 3 -5 6 6 6 11 1 17 -2 13 -5z m42 -76 c1 -5
-9 -7 -21 -7 -16 1 -18 3 -7 6 11 3 15 12 13 26 -4 21 -4 21 5 2 5 -11 10 -23
10 -27z m-1812 26 c-3 -3 -12 -4 -19 -1 -8 3 -5 6 6 6 11 1 17 -2 13 -5z m157
-129 c3 -8 1 -15 -4 -15 -6 0 -10 7 -10 15 0 8 2 15 4 15 2 0 6 -7 10 -15z
m90 0 c-4 -8 -10 -12 -15 -9 -5 3 -9 0 -9 -5 0 -6 -6 -11 -12 -11 -7 1 -2 10
11 20 28 24 32 25 25 5z m-57 -40 c0 -8 -4 -12 -9 -9 -4 3 -8 9 -8 15 0 5 4 9
8 9 5 0 9 -7 9 -15z m3173 -78 c0 -5 -4 -5 -10 -2 -5 3 -10 14 -10 23 0 15 2
15 10 2 5 -8 10 -19 10 -23z m50 -1 c-7 -7 -13 -7 -20 0 -6 6 -3 10 10 10 13
0 16 -4 10 -10z m32 -8 c-7 -7 -12 -8 -12 -2 0 6 3 14 7 17 3 4 9 5 12 2 2 -3
-1 -11 -7 -17z m65 16 c-3 -3 -12 -4 -19 -1 -8 3 -5 6 6 6 11 1 17 -2 13 -5z
m178 -44 c-3 -5 -12 -10 -18 -10 -7 0 -6 4 3 10 19 12 23 12 15 0z m-435 -16
c0 -8 -4 -13 -9 -9 -6 3 -15 -3 -21 -12 -11 -17 -11 -17 -6 0 3 9 0 17 -7 18
-7 1 -1 5 13 9 14 4 26 8 28 9 1 1 2 -6 2 -15z m67 10 c-3 -3 -12 -4 -19 -1
-8 3 -5 6 6 6 11 1 17 -2 13 -5z m183 -4 c0 -5 -4 -10 -10 -10 -5 0 -10 5 -10
10 0 6 5 10 10 10 6 0 10 -4 10 -10z m144 -35 c-4 -8 -8 -15 -10 -15 -2 0 -4
7 -4 15 0 8 4 15 10 15 5 0 7 -7 4 -15z m263 -178 c-6 -19 -23 -18 -24 2 -1
14 3 18 13 14 8 -3 13 -10 11 -16z m-3917 -38 c0 -6 -7 -6 -20 1 -11 6 -20 15
-20 21 0 6 7 6 20 -1 11 -6 20 -15 20 -21z m2817 5 c-3 -3 -12 -4 -19 -1 -8 3
-5 6 6 6 11 1 17 -2 13 -5z m-2777 -29 c19 -23 8 -25 -14 -4 -11 11 -15 19 -9
19 6 0 16 -7 23 -15z m315 -23 c-3 -3 -11 0 -18 7 -9 10 -8 11 6 5 10 -3 15
-9 12 -12z m-265 -12 c0 -5 -7 -7 -15 -4 -8 4 -12 10 -9 15 6 11 24 2 24 -11z
m160 -69 c25 -11 25 -11 -5 -7 -40 6 -145 53 -145 65 0 9 47 -10 150 -58z
m-750 -21 c0 -4 -7 -7 -15 -6 -23 3 -26 12 -5 13 11 1 20 -2 20 -7z m35 0 c3
-5 1 -10 -4 -10 -6 0 -11 5 -11 10 0 6 2 10 4 10 3 0 8 -4 11 -10z m71 -32
c-2 -36 -29 -51 -40 -23 -8 21 1 35 20 35 8 0 14 5 14 10 0 6 2 10 4 10 2 0 3
-15 2 -32z m-91 -9 c12 -18 -3 -22 -20 -5 -14 14 -14 16 -1 16 8 0 18 -5 21
-11z m32 -11 c-3 -8 -6 -5 -6 6 -1 11 2 17 5 13 3 -3 4 -12 1 -19z m250 -30
c-3 -8 -6 -5 -6 6 -1 11 2 17 5 13 3 -3 4 -12 1 -19z m193 12 c0 -5 -2 -10 -4
-10 -3 0 -8 5 -11 10 -3 6 -1 10 4 10 6 0 11 -4 11 -10z m4235 -18 c-3 -3 -11
0 -18 7 -9 10 -8 11 6 5 10 -3 15 -9 12 -12z m-4408 -18 c-3 -3 -12 -4 -19 -1
-8 3 -5 6 6 6 11 1 17 -2 13 -5z m50 -10 c9 -8 22 -13 29 -10 8 3 11 0 7 -10
-6 -16 -23 -19 -23 -4 0 6 -7 10 -16 8 -10 -2 -18 5 -19 15 -4 21 2 22 22 1z
m83 -9 c-7 -9 -15 -13 -19 -10 -3 3 1 10 9 15 21 14 24 12 10 -5z m177 9 c-3
-3 -12 -4 -19 -1 -8 3 -5 6 6 6 11 1 17 -2 13 -5z m-150 -11 c-4 -3 -2 -12 4
-20 7 -8 8 -13 1 -13 -12 0 -23 26 -15 34 4 3 9 6 11 6 3 0 2 -3 -1 -7z m4453
-3 c0 -5 -5 -10 -11 -10 -5 0 -7 5 -4 10 3 6 8 10 11 10 2 0 4 -4 4 -10z
m-4586 -19 c3 -5 -3 -11 -15 -14 -16 -4 -18 -3 -8 9 13 16 16 17 23 5z m413
-23 c-3 -8 -6 -5 -6 6 -1 11 2 17 5 13 3 -3 4 -12 1 -19z m1778 12 c3 -5 1
-10 -4 -10 -6 0 -11 5 -11 10 0 6 2 10 4 10 3 0 8 -4 11 -10z m10 -47 c-3 -16
-2 -22 1 -15 3 6 10 12 16 12 6 0 5 -6 -2 -15 -17 -21 -34 -4 -25 24 9 30 16
26 10 -6z m-447 10 c-10 -2 -26 -2 -35 0 -10 3 -2 5 17 5 19 0 27 -2 18 -5z
m269 -25 c-3 -8 -6 -5 -6 6 -1 11 2 17 5 13 3 -3 4 -12 1 -19z m117 3 c17 -7
26 -7 30 2 2 7 5 5 5 -4 1 -13 -7 -16 -31 -14 -18 1 -34 7 -36 14 -4 13 0 14
32 2z m101 -39 c-3 -3 -11 0 -18 7 -9 10 -8 11 6 5 10 -3 15 -9 12 -12z m-183
-14 c-7 -7 -12 -8 -12 -2 0 6 3 14 7 17 3 4 9 5 12 2 2 -3 -1 -11 -7 -17z
m4643 -8 c3 -5 1 -10 -4 -10 -6 0 -11 5 -11 10 0 6 2 10 4 10 3 0 8 -4 11 -10z
m35 0 c0 -5 -5 -10 -11 -10 -5 0 -7 5 -4 10 3 6 8 10 11 10 2 0 4 -4 4 -10z
m-3816 -325 c6 -30 5 -30 -6 3 -6 17 -15 32 -19 32 -5 0 -9 5 -9 12 0 23 29
-16 34 -47z m160 16 c-5 -6 -34 20 -34 30 0 5 8 1 18 -8 10 -10 17 -20 16 -22z
m-299 9 c3 -6 -1 -7 -9 -4 -18 7 -21 14 -7 14 6 0 13 -4 16 -10z m35 0 c0 -5
-2 -10 -4 -10 -3 0 -8 5 -11 10 -3 6 -1 10 4 10 6 0 11 -4 11 -10z m130 0 c0
-5 -4 -10 -10 -10 -5 0 -10 5 -10 10 0 6 5 10 10 10 6 0 10 -4 10 -10z m-206
-26 c3 -8 2 -12 -4 -9 -6 3 -10 10 -10 16 0 14 7 11 14 -7z m36 -5 c0 -6 -4
-7 -10 -4 -5 3 -10 11 -10 16 0 6 5 7 10 4 6 -3 10 -11 10 -16z m109 -23 c-9
-8 -10 -7 -5 7 3 10 7 24 7 30 1 7 3 4 6 -7 3 -10 -1 -23 -8 -30z m74 24 c-3
-12 -8 -19 -11 -16 -5 6 5 36 12 36 2 0 2 -9 -1 -20z m177 10 c0 -5 -4 -10
-10 -10 -5 0 -10 5 -10 10 0 6 5 10 10 10 6 0 10 -4 10 -10z m-300 -28 c0 -15
-2 -15 -10 -2 -13 20 -13 33 0 25 6 -3 10 -14 10 -23z m162 -16 c7 4 8 2 4 -5
-9 -13 -26 -5 -25 12 0 9 2 8 6 -1 2 -6 10 -9 15 -6z m-37 -8 c5 4 5 1 1 -6
-6 -10 -11 -10 -22 -1 -8 6 -14 14 -14 16 0 3 6 0 13 -6 8 -6 18 -7 22 -3z
m-1466 -448 c-16 -10 0 -16 43 -15 20 0 34 -3 32 -7 -5 -7 14 -12 44 -11 7 1
12 -12 12 -29 0 -17 4 -27 10 -23 6 4 10 -13 11 -42 0 -26 2 -57 5 -68 2 -11
5 -67 6 -124 l3 -105 -55 3 c-36 1 -62 -3 -75 -12 -19 -14 -18 -16 22 -68 23
-30 46 -67 52 -82 28 -74 -5 -201 -70 -265 -29 -28 -109 -78 -109 -68 0 2 -16
0 -36 -4 -82 -19 -181 52 -210 148 -14 50 -14 148 0 170 2 4 7 28 10 52 12 94
16 118 32 186 8 38 17 83 19 100 1 18 15 69 30 115 15 46 29 92 31 103 5 27
13 31 20 13 3 -9 -2 -67 -11 -129 -30 -192 -30 -191 -9 -180 13 7 25 35 37 94
11 45 27 105 38 132 10 26 17 52 14 56 -3 5 -1 11 5 15 6 4 8 10 5 14 -2 5 4
16 15 26 17 15 22 16 37 4 15 -12 16 -12 10 3 -4 13 -2 15 10 11 12 -5 14 -3
8 8 -8 12 -6 12 9 0 12 -10 14 -16 5 -21z m266 -160 c12 -73 21 -322 12 -327
-4 -2 -5 -13 -2 -24 9 -28 -18 -24 -41 6 -10 14 -19 31 -19 38 0 6 -7 17 -15
24 -13 10 -13 14 -1 25 12 11 13 11 6 -1 -5 -9 -4 -12 3 -7 13 8 4 67 -12 78
-7 5 -7 8 2 8 8 0 12 6 9 13 -2 6 -10 11 -16 9 -13 -3 -11 38 4 71 4 9 5 26 2
37 -3 11 -2 18 3 15 4 -3 7 11 5 31 -3 26 2 41 17 56 25 25 33 16 43 -52z
m-1529 -16 c-3 -9 -6 -20 -6 -25 0 -5 -4 -9 -10 -9 -11 0 -14 33 -3 43 12 13
25 7 19 -9z m81 -20 c-3 -3 -12 -4 -19 -1 -8 3 -5 6 6 6 11 1 17 -2 13 -5z
m1575 -137 c7 -6 26 -13 42 -14 16 0 31 -5 35 -10 3 -4 20 -13 36 -19 19 -6
29 -16 29 -27 -1 -9 5 -17 13 -17 8 0 12 4 8 9 -3 5 -1 12 4 15 16 11 22 -12
7 -27 -15 -15 -70 -9 -161 17 -37 10 -40 14 -43 49 -3 38 7 46 30 24z m28
-136 c0 -8 41 -21 80 -26 48 -7 76 -28 48 -37 -6 -2 -8 -10 -4 -17 6 -9 11 -9
22 0 8 6 17 9 21 6 3 -4 -2 -9 -11 -13 -9 -3 -13 -11 -10 -16 4 -6 1 -9 -7 -6
-13 4 -49 -31 -49 -49 0 -4 4 -2 9 6 7 11 10 9 16 -9 6 -18 9 -20 16 -9 7 11
9 10 9 -3 0 -10 -4 -18 -9 -18 -5 0 -11 -6 -14 -12 -2 -7 -3 -6 -2 3 1 9 -1
23 -6 30 -7 11 -9 11 -9 1 0 -10 -4 -10 -16 2 -20 20 -30 20 -38 0 -5 -14 -4
-15 9 -4 18 15 19 9 3 -25 -9 -20 -9 -28 1 -38 10 -9 11 -9 6 4 -3 9 2 22 11
30 16 12 17 12 11 -4 -4 -10 -7 -25 -7 -33 0 -9 -7 -14 -17 -12 -10 1 -24 -1
-30 -5 -9 -6 -11 -3 -6 9 4 12 3 15 -5 10 -9 -5 -9 0 -2 20 8 21 8 25 -4 21
-10 -4 -7 5 7 27 12 19 26 31 31 28 5 -3 6 1 1 8 -6 11 -10 10 -19 -2 -6 -8
-19 -17 -28 -21 -10 -3 -19 -17 -19 -29 -1 -21 -2 -21 -6 -3 -3 11 -10 26 -15
32 -6 7 -8 19 -5 28 4 8 2 17 -3 20 -11 7 -14 98 -3 108 9 10 43 8 43 -2z
m1741 -27 c43 -27 103 -97 119 -138 6 -16 14 -55 19 -88 7 -49 5 -58 -8 -59
-13 -1 -13 -2 2 -6 22 -6 21 -18 -6 -68 -27 -48 -89 -85 -155 -91 -37 -4 -58
1 -109 26 -104 51 -179 161 -182 268 -1 13 -7 22 -17 22 -8 0 -13 -4 -9 -9 3
-5 1 -12 -4 -15 -5 -3 -8 11 -6 31 1 20 7 39 14 41 6 2 9 8 5 13 -3 5 0 9 6 9
6 0 13 -6 16 -14 4 -10 18 -1 47 31 46 50 67 64 117 74 50 10 109 0 151 -27z
m-1546 -123 c-4 -3 -10 0 -14 7 -5 9 -15 10 -33 3 -19 -7 -25 -6 -25 5 0 9 7
12 19 8 11 -3 18 0 18 7 0 8 7 5 20 -6 11 -10 18 -21 15 -24z m-15 -34 c10 -4
8 -6 -7 -6 -16 -1 -23 5 -23 17 0 10 3 13 8 6 4 -6 14 -14 22 -17z m-195 -97
c-3 -5 -11 -10 -16 -10 -6 0 -7 5 -4 10 3 6 11 10 16 10 6 0 7 -4 4 -10z
m-721 -97 c4 -21 7 -46 8 -55 1 -10 6 -18 9 -18 4 0 11 -9 14 -20 3 -11 14
-28 23 -37 16 -16 16 -16 0 -11 -9 4 -18 2 -20 -3 -2 -7 -13 -6 -30 2 -15 6
-25 15 -23 20 3 4 1 10 -5 14 -5 3 -10 30 -10 58 0 95 21 126 34 50z m2046 21
c0 -13 -31 -35 -41 -28 -9 5 -6 11 6 21 20 14 35 17 35 7z m-2167 -72 c-5 -22
-23 -31 -23 -12 0 10 23 40 27 36 1 -1 0 -12 -4 -24z m-22 -75 c-10 -9 -11 -8
-5 6 3 10 9 15 12 12 3 -3 0 -11 -7 -18z m-6 -46 c3 -5 2 -12 -3 -15 -5 -3 -9
1 -9 9 0 17 3 19 12 6z"/>
<path d="M1191 5103 c-1 -18 19 -27 32 -13 9 10 8 12 -5 7 -9 -3 -19 -1 -22 6
-3 9 -5 9 -5 0z"/>
<path d="M1000 4974 c0 -8 5 -12 10 -9 6 3 10 10 10 16 0 5 -4 9 -10 9 -5 0
-10 -7 -10 -16z"/>
<path d="M1040 4980 c0 -5 5 -10 10 -10 6 0 10 5 10 10 0 6 -4 10 -10 10 -5 0
-10 -4 -10 -10z"/>
<path d="M860 4900 c0 -5 5 -10 11 -10 5 0 7 5 4 10 -3 6 -8 10 -11 10 -2 0
-4 -4 -4 -10z"/>
<path d="M3808 5713 c7 -3 16 -2 19 1 4 3 -2 6 -13 5 -11 0 -14 -3 -6 -6z"/>
<path d="M3755 5600 c3 -5 11 -10 16 -10 6 0 7 5 4 10 -3 6 -11 10 -16 10 -6
0 -7 -4 -4 -10z"/>
<path d="M4268 4623 c6 -2 18 -2 25 0 6 3 1 5 -13 5 -14 0 -19 -2 -12 -5z"/>
<path d="M4098 4603 c12 -2 30 -2 40 0 9 3 -1 5 -23 4 -22 0 -30 -2 -17 -4z"/>
<path d="M4038 4593 c7 -3 16 -2 19 1 4 3 -2 6 -13 5 -11 0 -14 -3 -6 -6z"/>
<path d="M3398 4473 c7 -3 16 -2 19 1 4 3 -2 6 -13 5 -11 0 -14 -3 -6 -6z"/>
<path d="M2485 4213 c-72 -27 -115 -46 -112 -49 4 -4 157 52 165 60 9 9 -10 5
-53 -11z"/>
<path d="M4203 3673 c-16 -6 -17 -39 -1 -49 7 -5 9 -1 6 13 -3 12 0 20 8 20 8
0 14 -6 14 -14 0 -7 4 -13 8 -13 4 0 8 9 8 20 0 10 -2 17 -5 15 -2 -3 -9 -1
-15 4 -6 4 -17 6 -23 4z"/>
<path d="M4260 3652 c0 -5 7 -15 15 -22 8 -7 15 -8 15 -2 0 5 -7 15 -15 22 -8
7 -15 8 -15 2z"/>
<path d="M4212 3613 c-10 -4 -9 -9 4 -24 16 -18 34 -17 34 1 0 5 -7 7 -15 4
-8 -4 -15 -1 -15 4 0 6 8 13 18 15 11 3 12 5 2 5 -8 0 -21 -2 -28 -5z"/>
<path d="M4295 3590 c-3 -5 1 -10 9 -10 9 0 16 5 16 10 0 6 -4 10 -9 10 -6 0
-13 -4 -16 -10z"/>
<path d="M4256 3562 c-2 -4 4 -8 14 -8 10 0 16 4 14 8 -3 4 -9 8 -14 8 -5 0
-11 -4 -14 -8z"/>
<path d="M4215 3530 c-15 -6 -11 -7 17 -7 23 1 33 4 25 9 -14 9 -16 9 -42 -2z"/>
<path d="M2681 3604 c0 -11 3 -14 6 -6 3 7 2 16 -1 19 -3 4 -6 -2 -5 -13z"/>
<path d="M2520 3586 c0 -31 6 -34 13 -6 3 11 1 23 -4 26 -5 3 -9 -6 -9 -20z"/>
<path d="M1795 3330 c-3 -5 -1 -10 4 -10 6 0 11 5 11 10 0 6 -2 10 -4 10 -3 0
-8 -4 -11 -10z"/>
<path d="M445 2910 c-19 -8 -19 -9 3 -9 12 -1 22 4 22 9 0 6 -1 10 -2 9 -2 0
-12 -4 -23 -9z"/>
<path d="M2100 2029 c0 -5 5 -7 10 -4 6 3 10 8 10 11 0 2 -4 4 -10 4 -5 0 -10
-5 -10 -11z"/>
<path d="M2568 2003 c6 -2 18 -2 25 0 6 3 1 5 -13 5 -14 0 -19 -2 -12 -5z"/>
<path d="M2354 1988 c4 -20 26 -21 26 -1 0 14 -2 15 -9 4 -6 -9 -10 -10 -14
-2 -4 8 -5 8 -3 -1z"/>
<path d="M2307 1973 c6 -16 5 -17 -12 -3 -16 13 -18 13 -13 0 7 -23 48 -21 48
1 0 11 -7 19 -15 19 -10 0 -12 -6 -8 -17z"/>
<path d="M2564 1974 c9 -8 24 -13 34 -11 14 4 14 5 -3 7 l-20 1 20 9 c17 7 14
9 -13 9 -30 1 -32 0 -18 -15z"/>
<path d="M2441 1964 c0 -11 3 -14 6 -6 3 7 2 16 -1 19 -3 4 -6 -2 -5 -13z"/>
<path d="M970 3150 c0 -5 5 -10 10 -10 6 0 10 5 10 10 0 6 -4 10 -10 10 -5 0
-10 -4 -10 -10z"/>
<path d="M3986 2712 c-3 -5 1 -9 9 -9 8 0 12 4 9 9 -3 4 -7 8 -9 8 -2 0 -6 -4
-9 -8z"/>
<path d="M4075 2710 c-12 -19 7 -60 27 -60 19 0 19 1 -3 19 -20 16 -21 21 -10
35 8 10 9 16 3 16 -6 0 -13 -4 -17 -10z"/>
<path d="M4019 2683 c0 -25 -1 -26 -9 -8 -8 18 -9 18 -9 2 -1 -10 -5 -16 -10
-12 -5 3 -12 1 -16 -5 -4 -6 5 -10 20 -10 15 0 24 -4 20 -10 -3 -5 0 -10 8
-10 10 0 14 12 14 40 0 44 -17 56 -18 13z"/>
<path d="M4051 2694 c0 -11 3 -14 6 -6 3 7 2 16 -1 19 -3 4 -6 -2 -5 -13z"/>
<path d="M4130 2690 c-8 -5 -12 -11 -10 -14 3 -2 14 2 24 10 22 15 10 19 -14
4z"/>
<path d="M3898 2605 c-3 -14 -1 -25 3 -25 5 0 9 11 9 25 0 14 -2 25 -4 25 -2
0 -6 -11 -8 -25z"/>
<path d="M3500 2370 c0 -5 5 -10 11 -10 5 0 7 5 4 10 -3 6 -8 10 -11 10 -2 0
-4 -4 -4 -10z"/>
<path d="M1749 684 c-16 -18 -22 -37 -33 -107 -4 -24 -3 -27 10 -17 7 7 14 21
14 31 0 10 5 21 11 25 6 3 9 15 6 25 -3 10 0 20 5 21 6 2 9 12 7 22 -4 18 -5
18 -20 0z"/>
<path d="M4545 2400 c3 -5 10 -10 16 -10 5 0 9 5 9 10 0 6 -7 10 -16 10 -8 0
-12 -4 -9 -10z"/>
<path d="M11 2121 c-16 -10 -11 -63 7 -69 6 -2 12 1 12 8 0 6 -4 8 -10 5 -14
-9 -13 28 2 43 14 14 7 24 -11 13z"/>
<path d="M5780 2106 c0 -9 7 -16 15 -16 8 0 15 -6 15 -14 0 -8 7 -16 15 -20
26 -9 15 18 -16 42 -23 19 -29 20 -29 8z"/>
<path d="M4473 2098 c4 -10 2 -18 -3 -18 -15 0 -12 -17 4 -23 10 -4 13 -1 10
7 -4 10 3 12 23 10 15 -2 19 -1 8 2 -11 3 -26 13 -34 22 -13 16 -13 16 -8 0z"/>
<path d="M26 2092 c-2 -4 2 -16 10 -27 8 -10 14 -16 14 -13 0 4 3 13 6 21 5
15 -22 32 -30 19z"/>
<path d="M82 2055 c6 -14 18 -25 27 -25 14 1 13 2 -1 11 -10 5 -18 17 -18 24
0 8 -4 15 -10 15 -6 0 -5 -10 2 -25z"/>
<path d="M4556 2055 c-9 -26 -7 -32 5 -12 6 10 9 21 6 23 -2 3 -7 -2 -11 -11z"/>
<path d="M4592 2050 c-7 -11 -10 -20 -6 -20 7 0 34 27 34 34 0 13 -16 5 -28
-14z"/>
<path d="M60 2055 c-1 -5 -3 -18 -5 -27 -2 -10 1 -18 5 -18 14 0 18 14 9 35
-4 11 -8 16 -9 10z"/>
<path d="M5977 2042 c-32 -15 -33 -47 -3 -47 13 0 22 10 27 29 5 17 7 31 6 31
-1 1 -15 -5 -30 -13z"/>
<path d="M4666 2034 c-5 -13 -4 -14 7 -6 8 7 17 9 20 5 4 -3 7 -1 7 5 0 18
-27 14 -34 -4z"/>
<path d="M240 2010 c0 -5 5 -10 10 -10 6 0 10 5 10 10 0 6 -4 10 -10 10 -5 0
-10 -4 -10 -10z"/>
<path d="M334 1985 c-3 -8 -12 -15 -20 -15 -8 0 -14 -8 -14 -17 0 -11 3 -14 8
-7 4 5 23 15 42 20 34 10 35 10 12 23 -19 10 -23 9 -28 -4z"/>
<path d="M262 1968 c-7 -9 -6 -17 3 -25 10 -9 13 -7 11 13 -1 28 -1 28 -14 12z"/>
<path d="M451 1963 c-1 -6 -7 -13 -13 -16 -7 -2 -5 -3 5 -2 9 2 17 -1 17 -7 0
-5 7 -3 15 6 19 19 20 32 1 17 -11 -9 -15 -9 -19 1 -4 9 -6 9 -6 1z"/>
<path d="M655 1945 c-16 -14 -25 -25 -18 -25 6 0 15 5 18 10 3 6 11 10 16 10
6 0 7 -4 4 -10 -3 -5 -2 -10 3 -10 5 0 10 11 10 25 0 14 -1 25 -2 25 0 -1 -14
-12 -31 -25z"/>
<path d="M226 1945 c4 -8 11 -15 16 -15 6 0 5 6 -2 15 -7 8 -14 15 -16 15 -2
0 -1 -7 2 -15z"/>
<path d="M541 1944 c0 -11 3 -14 6 -6 3 7 2 16 -1 19 -3 4 -6 -2 -5 -13z"/>
<path d="M615 1950 c3 -5 8 -10 11 -10 2 0 4 5 4 10 0 6 -5 10 -11 10 -5 0 -7
-4 -4 -10z"/>
<path d="M4981 1944 c0 -11 3 -14 6 -6 3 7 2 16 -1 19 -3 4 -6 -2 -5 -13z"/>
<path d="M750 1940 c0 -5 5 -10 10 -10 6 0 10 5 10 10 0 6 -4 10 -10 10 -5 0
-10 -4 -10 -10z"/>
<path d="M5055 1940 c3 -5 8 -10 11 -10 2 0 4 5 4 10 0 6 -5 10 -11 10 -5 0
-7 -4 -4 -10z"/>
<path d="M708 1913 c7 -3 16 -2 19 1 4 3 -2 6 -13 5 -11 0 -14 -3 -6 -6z"/>
<path d="M829 1918 c-7 -25 -5 -36 7 -31 9 3 14 -1 14 -12 0 -9 5 -13 10 -10
8 5 8 11 1 19 -6 7 -8 16 -4 20 4 4 -1 4 -11 0 -14 -5 -17 -4 -12 4 4 7 5 12
2 12 -3 0 -6 -1 -7 -2z"/>
<path d="M910 1899 c0 -5 5 -7 10 -4 6 3 10 8 10 11 0 2 -4 4 -10 4 -5 0 -10
-5 -10 -11z"/>
<path d="M708 1893 c7 -3 16 -2 19 1 4 3 -2 6 -13 5 -11 0 -14 -3 -6 -6z"/>
<path d="M980 1896 c0 -2 7 -7 16 -10 8 -3 12 -2 9 4 -6 10 -25 14 -25 6z"/>
<path d="M1404 1892 c3 -6 -2 -15 -11 -21 -10 -6 -13 -11 -7 -11 20 0 37 27
23 36 -7 4 -9 3 -5 -4z"/>
<path d="M1023 1865 c-3 -9 -3 -19 1 -22 3 -4 6 1 6 10 0 8 6 18 13 20 9 4 9
6 -1 6 -7 1 -15 -6 -19 -14z"/>
<path d="M1425 1870 c-8 -13 5 -13 25 0 13 8 13 10 -2 10 -9 0 -20 -4 -23 -10z"/>
<path d="M800 1866 c0 -2 7 -6 15 -10 8 -3 15 -1 15 4 0 6 -7 10 -15 10 -8 0
-15 -2 -15 -4z"/>
<path d="M1106 1862 c-11 -19 10 -27 27 -10 16 17 16 18 -2 18 -11 0 -22 -4
-25 -8z"/>
<path d="M1265 1841 c-3 -5 -1 -12 4 -15 5 -3 11 1 15 9 6 16 -9 21 -19 6z"/>
<path d="M5290 1641 c0 -5 7 -14 15 -21 10 -9 15 -9 15 -1 0 6 -5 11 -11 11
-5 0 -7 5 -4 10 3 6 1 10 -4 10 -6 0 -11 -4 -11 -9z"/>
<path d="M4568 1493 c7 -3 16 -2 19 1 4 3 -2 6 -13 5 -11 0 -14 -3 -6 -6z"/>
<path d="M4488 1483 c12 -2 32 -2 45 0 12 2 2 4 -23 4 -25 0 -35 -2 -22 -4z"/>
<path d="M840 891 c0 -6 5 -13 10 -16 6 -3 10 1 10 9 0 9 -4 16 -10 16 -5 0
-10 -4 -10 -9z"/>
</g>
</svg>
